<svg xmlns="http://www.w3.org/2000/svg" width="1600" height="850" viewBox="0 0 1600 850" role="img" aria-labelledby="title desc">
  <title id="title">Retrieval benchmark - SWE-bench Multilingual</title>
  <desc id="desc">Grouped bar chart comparing Hit@10, Recall@10, and MRR@10 for grep, bm25, grep_bm25, llm_grep, and llm_grep_bm25.</desc>
  <rect width="1600" height="850" fill="#ffffff"/>
  <rect x="90" y="70" width="1460" height="700" fill="#f7f7f7"/>
  <text x="90" y="38" font-family="Arial, Helvetica, sans-serif" font-size="30" fill="#222222">Retrieval benchmark - SWE-bench Multilingual (hit / recall / mrr @10)</text>

  <g font-family="Arial, Helvetica, sans-serif" font-size="24">
    <rect x="110" y="92" width="44" height="18" fill="#386cb0"/>
    <text x="174" y="112" fill="#111111">Hit@10</text>
    <rect x="110" y="128" width="44" height="18" fill="#1f9e78"/>
    <text x="174" y="148" fill="#111111">Recall@10</text>
    <rect x="110" y="164" width="44" height="18" fill="#d95a32"/>
    <text x="174" y="184" fill="#111111">MRR@10</text>
  </g>

  <g stroke="#d8d8d8" stroke-width="1">
    <line x1="90" y1="770" x2="1550" y2="770"/>
    <line x1="90" y1="612" x2="1550" y2="612"/>
    <line x1="90" y1="454" x2="1550" y2="454"/>
    <line x1="90" y1="296" x2="1550" y2="296"/>
    <line x1="90" y1="138" x2="1550" y2="138"/>
  </g>

  <g font-family="Arial, Helvetica, sans-serif" font-size="20" fill="#666666" text-anchor="end">
    <text x="76" y="777">0.0</text>
    <text x="76" y="619">0.2</text>
    <text x="76" y="461">0.4</text>
    <text x="76" y="303">0.6</text>
    <text x="76" y="145">0.8</text>
  </g>
  <text x="28" y="430" transform="rotate(-90 28 430)" font-family="Arial, Helvetica, sans-serif" font-size="26" fill="#444444" text-anchor="middle">Score</text>

  <!-- scale: y = 770 - value * 790 -->
  <g font-family="Arial, Helvetica, sans-serif">
    <g>
      <rect x="156" y="375" width="72" height="395" fill="#386cb0"/>
      <rect x="230" y="454" width="72" height="316" fill="#1f9e78"/>
      <rect x="304" y="530" width="72" height="240" fill="#d95a32"/>
      <text x="192" y="363" font-size="18" fill="#444444" text-anchor="middle">0.500</text>
      <text x="266" y="442" font-size="18" fill="#444444" text-anchor="middle">0.400</text>
      <text x="340" y="518" font-size="18" fill="#444444" text-anchor="middle">0.304</text>
      <text x="266" y="813" font-size="26" fill="#222222" text-anchor="middle">grep</text>
    </g>

    <g>
      <rect x="434" y="357" width="72" height="413" fill="#386cb0"/>
      <rect x="508" y="426" width="72" height="344" fill="#1f9e78"/>
      <rect x="582" y="576" width="72" height="194" fill="#d95a32"/>
      <text x="470" y="345" font-size="18" fill="#444444" text-anchor="middle">0.523</text>
      <text x="544" y="414" font-size="18" fill="#444444" text-anchor="middle">0.436</text>
      <text x="618" y="564" font-size="18" fill="#444444" text-anchor="middle">0.246</text>
      <text x="544" y="813" font-size="26" fill="#222222" text-anchor="middle">bm25</text>
    </g>

    <g>
      <rect x="712" y="302" width="72" height="468" fill="#386cb0"/>
      <rect x="786" y="381" width="72" height="389" fill="#1f9e78"/>
      <rect x="860" y="490" width="72" height="280" fill="#d95a32"/>
      <text x="748" y="290" font-size="18" fill="#444444" text-anchor="middle">0.593</text>
      <text x="822" y="369" font-size="18" fill="#444444" text-anchor="middle">0.493</text>
      <text x="896" y="478" font-size="18" fill="#444444" text-anchor="middle">0.355</text>
      <text x="822" y="813" font-size="26" fill="#222222" text-anchor="middle">grep_bm25</text>
    </g>

    <g>
      <rect x="990" y="170" width="72" height="600" fill="#386cb0"/>
      <rect x="1064" y="265" width="72" height="505" fill="#1f9e78"/>
      <rect x="1138" y="400" width="72" height="370" fill="#d95a32"/>
      <text x="1026" y="158" font-size="18" fill="#444444" text-anchor="middle">0.760</text>
      <text x="1100" y="253" font-size="18" fill="#444444" text-anchor="middle">0.639</text>
      <text x="1174" y="388" font-size="18" fill="#444444" text-anchor="middle">0.469</text>
      <text x="1100" y="813" font-size="26" fill="#222222" text-anchor="middle">llm_grep</text>
    </g>

    <g>
      <rect x="1268" y="172" width="72" height="598" fill="#386cb0"/>
      <rect x="1342" y="271" width="72" height="499" fill="#1f9e78"/>
      <rect x="1416" y="409" width="72" height="361" fill="#d95a32"/>
      <text x="1304" y="160" font-size="18" fill="#444444" text-anchor="middle">0.757</text>
      <text x="1378" y="259" font-size="18" fill="#444444" text-anchor="middle">0.632</text>
      <text x="1452" y="397" font-size="18" fill="#444444" text-anchor="middle">0.457</text>
      <text x="1378" y="813" font-size="26" fill="#222222" text-anchor="middle">llm_grep_bm25</text>
    </g>
  </g>
</svg>
